/* XPM */
static char * program_xpm[] = {
"14 14 39 1",
" 	c None",
".	c #000000",
"+	c #E4E3E1",
"@	c #E4E4E4",
"#	c #B3B3B1",
"$	c #484641",
"%	c #9F9D96",
"&	c #888781",
"*	c #B0AFAD",
"=	c #A8A7A1",
"-	c #908E86",
";	c #97958E",
">	c #807D74",
",	c #595854",
"'	c #605E57",
")	c #898883",
"!	c #76746B",
"~	c #43423F",
"{	c #282724",
"]	c #363430",
"^	c #6D6B63",
"/	c #E2E2E1",
"(	c #B6B5AF",
"_	c #21201E",
":	c #0A0908",
"<	c #181816",
"[	c #E6E6E4",
"}	c #65635C",
"|	c #161614",
"1	c #8C8B89",
"2	c #DFDEDC",
"3	c #B0AFA9",
"4	c #D5D4D1",
"5	c #93918B",
"6	c #D6D5D2",
"7	c #ABA9A3",
"8	c #5D5C55",
"9	c #494943",
"0	c #42413C",
"              ",
"      ...     ",
"   .. .+. ..  ",
"  .@#.$%$.&.. ",
"  .*=%%%-;>$. ",
"   .%%,')>!.  ",
" ..$%'~{]%^$..",
" ./(%,_:<[>}'.",
" ..$%)]|12}$..",
"   .3>([45}.  ",
"  .67%>>!!8$. ",
"  ..,.$!$.9.. ",
"   .. .0. ..  ",
"      ...     "};
