/* XPM */
static char * shared_xpm[] = {
"16 16 51 1",	    
" 	c None",
".	c #000000",
"+	c #B2A97E",
"@	c #B6AD81",
"#	c #7A7356",
"$	c #B0A77C",
"%	c #B5AC80",
"&	c #BAB184",
"*	c #BBB284",
"=	c #B6AD80",
"-	c #ADA57B",
";	c #B7AE81",
">	c #BDB486",
",	c #837C5C",
"'	c #E9E9D6",
")	c #B4AC80",
"!	c #7C7557",
"~	c #C0B687",
"{	c #BEB586",
"]	c #050504",
"^	c #EAEADA",
"/	c #B1A87D",
"(	c #B9B082",
"_	c #C0B788",
":	c #6B6B4F",
"<	c #E9E9D5",
"[	c #BEBE9C",
"}	c #1C1C15",
"|	c #0E0E0B",
"1	c #E9E9D7",
"2	c #E8E8D5",
"3	c #BAB183",
"4	c #808065",
"5	c #E6E6D1",
"6	c #E4E4CC",
"7	c #E8E8D4",
"8	c #CDCDB2",
"9	c #6A6A4E",
"0	c #E0E0C7",
"a	c #A8A87E",
"b	c #EAEAD8",
"c	c #E7E7D2",
"d	c #C5C5A4",
"e	c #E3E3CE",
"f	c #5D5D44",
"g	c #E7E7D3",
"h	c #434343",
"i	c #141414",
"j	c #E7E7D4",
"k	c #E5E5D1",
"l	c #E0E0CA",
"                ",
"         ....   ",
"        .+.@#.  ",
"       .$%&*=-. ",
"     ....;>,$.. ",
"     .'.-)!~{@. ",
" ..] .^../({_.. ",
".:<[}|12.#.3#.4.",
".'566'''7.2..68.",
".90a..b5c7..def.",
" ... .22g2.h..i ",
"     .gjkl.     ",
"     ......     ",
"                ",
"                ",
"                "};
