/* XPM */
static char * static_xpm[] = {
"16 16 38 1",
" 	c None",
".	c #000000",
"+	c #E9E9D6",
"@	c #E8E8D5",
"#	c #050504",
"$	c #EAEADA",
"%	c #484848",
"&	c #0B0B0A",
"*	c #050505",
"=	c #0D0D0D",
"-	c #6B6B4F",
";	c #E9E9D5",
">	c #BEBE9C",
",	c #1C1C15",
"'	c #0E0E0B",
")	c #E9E9D7",
"!	c #0E0E0C",
"~	c #070706",
"{	c #9F9F86",
"]	c #E8E8D4",
"^	c #808065",
"/	c #E6E6D1",
"(	c #E4E4CC",
"_	c #E7E7D3",
":	c #CDCDB2",
"<	c #6A6A4E",
"[	c #E0E0C7",
"}	c #A8A87E",
"|	c #EAEAD8",
"1	c #E7E7D2",
"2	c #C5C5A4",
"3	c #E3E3CE",
"4	c #5D5D44",
"5	c #434343",
"6	c #141414",
"7	c #E7E7D4",
"8	c #E5E5D1",
"9	c #E0E0CA",
"                ",
"                ",
"                ",
"                ",
"     ......     ",
"     .+@@@.     ",
" ..# .$+++.%&*= ",
".-;>,')@+@!~{]^.",
".+/((+++]_@++(:.",
".<[}..|/1]..234.",
" ... .@@_@.5..6 ",
"     ._789.     ",
"     ......     ",
"                ",
"                ",
"                "};
