/* XPM */
static char * tree_expand_xpm[] = {
"13 13 8 1",
" 	c None",
".	c #000000",
"+	c #54DC00",
"@	c #38D400",
"#	c #00A400",
"$	c #009800",
"%	c #008400",
"&	c #007400",
"  ..         ",
"  .+.        ",
"  .+@.       ",
"  .+#@.      ",
"  .+##@.     ",
"  .+#$#@.    ",
"  .+#$$%@.   ",
"  .+#$%&.    ",
"  .+#%&.     ",
"  .+#&.      ",
"  .+&.       ",
"  .+.        ",
"  ..         "};
